<?xml version="1.0" encoding="UTF-8" standalone="no"?>
<!-- Created with Inkscape (http://www.inkscape.org/) -->

<svg
   xmlns:dc="http://purl.org/dc/elements/1.1/"
   xmlns:cc="http://creativecommons.org/ns#"
   xmlns:rdf="http://www.w3.org/1999/02/22-rdf-syntax-ns#"
   xmlns:svg="http://www.w3.org/2000/svg"
   xmlns="http://www.w3.org/2000/svg"
   xmlns:sodipodi="http://sodipodi.sourceforge.net/DTD/sodipodi-0.dtd"
   xmlns:inkscape="http://www.inkscape.org/namespaces/inkscape"
   width="43.349426mm"
   height="43.349422mm"
   viewBox="0 0 43.349426 43.349422"
   version="1.1"
   id="svg849"
   inkscape:version="0.92.4 5da689c313, 2019-01-14"
   sodipodi:docname="vifm.svg"
   inkscape:export-xdpi="56.249886"
   inkscape:export-ydpi="56.249886"
   inkscape:export-filename="/home/xaizek/vifm-96px.png">
  <title
     id="title7918">Vifm logo </title>
  <sodipodi:namedview
     id="namedview851"
     pagecolor="#ffffff"
     bordercolor="#666666"
     borderopacity="1.0"
     inkscape:pageshadow="2"
     inkscape:pageopacity="0.0"
     inkscape:pagecheckerboard="true"
     inkscape:document-units="mm"
     showgrid="false"
     inkscape:zoom="2.0000001"
     inkscape:cx="-100.65474"
     inkscape:cy="66.558817"
     inkscape:window-width="1918"
     inkscape:window-height="510"
     inkscape:window-x="0"
     inkscape:window-y="17"
     inkscape:window-maximized="0"
     inkscape:current-layer="layer9"
     showguides="true"
     inkscape:guide-bbox="true"
     inkscape:showpageshadow="false"
     showborder="false" />
  <defs
     id="defs846">
    <filter
       inkscape:collect="always"
       style="color-interpolation-filters:sRGB"
       id="filter3388"
       x="-0.069767021"
       y="-0.072774529"
       width="1.139534"
       height="1.1455491">
      <feGaussianBlur
         inkscape:collect="always"
         stdDeviation="0.90627015"
         id="feGaussianBlur3390" />
    </filter>
  </defs>
  <g
     inkscape:groupmode="layer"
     id="layer5"
     inkscape:label="BG"
     style="display:inline"
     transform="translate(-72.288184,-132.01651)">
    <path
       id="BG"
       d="m 73.812188,132.06141 3.640674,-0.0449 h 6.942681 21.674707 7.36602 c 1.43087,0.003 2.1988,0.77047 2.20134,2.20134 v 31.58073 7.36601 c -0.002,1.43087 -0.77047,2.1988 -2.20134,2.20134 H 81.855538 74.489523 c -1.430869,-0.003 -2.198798,-0.77047 -2.201338,-2.20134 v -31.24206 -7.87402 c 0.0127,-1.02193 0.547795,-1.69587 1.524003,-1.98713 z m 19.393999,1.22513 H 78.384198 75.674859 c -0.534248,8.5e-4 -1.348743,0.0339 -1.73059,0.45212 -0.349674,0.38185 -0.385234,1.16671 -0.386081,1.66455 v 29.71806 5.92668 c 0,0.66802 -0.08128,1.99052 0.325967,2.52392 0.375921,0.49276 1.219203,0.52324 1.790704,0.52409 h 17.531328 z m 1.35467,40.80942 h 15.319403 2.54001 c 0.48937,-0.006 1.21581,-0.0728 1.56125,-0.45212 0.34968,-0.38185 0.38524,-1.16671 0.38608,-1.66455 v -29.71807 -5.92667 c 0,-0.66802 0.0813,-1.99052 -0.32596,-2.52392 -0.37592,-0.49276 -1.21921,-0.52324 -1.79071,-0.52409 H 94.560857 Z"
       style="fill:#3798ff;fill-opacity:1;stroke:#000000;stroke-width:0;stroke-miterlimit:4;stroke-dasharray:none"
       inkscape:connector-curvature="0"
       sodipodi:nodetypes="ccccccccccccccccccccccsccccccccccscccc" />
  </g>
  <g
     inkscape:groupmode="layer"
     id="layer2"
     inkscape:label="BG_black"
     style="display:inline"
     transform="translate(-72.288184,-132.01651)">
    <path
       id="BG-black"
       d="M 93.206187,174.09596 H 78.384198 75.674859 c -0.534248,-8.5e-4 -1.348743,-0.0339 -1.73059,-0.45212 -0.349674,-0.38185 -0.385235,-1.16671 -0.386081,-1.66455 v -29.71806 -5.92668 c 0,-0.66802 -0.08128,-1.99052 0.325967,-2.52392 0.375921,-0.49276 1.219203,-0.52324 1.790704,-0.52408 h 17.531328 z m 1.35467,-40.80941 h 15.319403 2.54001 c 0.48937,0.006 1.21581,0.0728 1.56125,0.45212 0.34968,0.38184 0.38524,1.16671 0.38609,1.66455 v 29.71806 5.92667 c 0,0.66803 0.0813,1.99052 -0.32597,2.52392 -0.37592,0.49276 -1.2192,0.52324 -1.79071,0.52409 H 94.560857 Z"
       style="fill:#000000;fill-opacity:1;stroke:#000000;stroke-width:0;stroke-miterlimit:4;stroke-dasharray:none"
       inkscape:connector-curvature="0"
       sodipodi:nodetypes="ccccccsccccccccccscccc" />
  </g>
  <g
     inkscape:groupmode="layer"
     id="layer6"
     inkscape:label="sq1"
     style="display:inline"
     transform="translate(-72.288184,-132.01651)">
    <path
       id="sq1"
       d="m 93.788654,141.85076 c 0.574266,0.0203 0.984908,0.50716 1.372325,0.81789 0,0 2.850215,2.286 2.850215,2.286 0,0 11.611926,9.31335 11.611926,9.31335 0,0 3.27247,2.62468 3.27247,2.62468 0.24596,0.19727 1.03452,0.74845 1.03452,1.016 0,0.26754 -0.78856,0.81873 -1.03452,1.016 0,0 -3.37803,2.70934 -3.37803,2.70934 0,0 -11.189676,8.97468 -11.189676,8.97468 0,0 -3.061341,2.45534 -3.061341,2.45534 -0.238573,0.19135 -0.989129,0.84752 -1.266762,0.90255 -0.394807,0.0796 -1.004964,-0.52324 -1.266761,-0.73321 0,0 -3.378032,-2.70934 -3.378032,-2.70934 0,0 -11.611983,-9.31336 -11.611983,-9.31336 0,0 -2.955777,-2.37067 -2.955777,-2.37067 -0.233296,-0.18711 -0.92896,-0.67141 -0.92896,-0.93133 0,-0.27263 0.881455,-0.89324 1.140086,-1.10067 0,0 3.589158,-2.87867 3.589158,-2.87867 0,0 10.345222,-8.29735 10.345222,-8.29735 0,0 3.166905,-2.54001 3.166905,-2.54001 0.47609,-0.38185 1.121084,-0.99314 1.689015,-1.24122 z"
       style="fill:#1a5390;fill-opacity:1;stroke:#000000;stroke-width:0;stroke-miterlimit:4;stroke-dasharray:none"
       inkscape:connector-curvature="0" />
    <path
       style="opacity:0;fill:#164578;fill-opacity:1;stroke:#164578;stroke-width:0;stroke-miterlimit:4;stroke-dasharray:none;stroke-opacity:1"
       d="m 341.8109,636.56627 c -0.61329,-0.17107 -6.84134,-6.27759 -30.47221,-29.87758 -16.33576,-16.31441 -29.98782,-30.10317 -30.33792,-30.6417 -0.77844,-1.19738 -0.8199,-2.23809 -0.1343,-3.37058 0.6993,-1.15514 59.05778,-59.50281 60.33243,-60.32127 1.14417,-0.73467 1.7599,-0.72722 3.25486,0.0394 0.94165,0.48288 59.57907,59.11787 60.28276,60.28025 0.68666,1.13426 0.64543,2.17438 -0.13367,3.37218 -0.35029,0.53853 -13.9528,14.28067 -30.2278,30.53809 -20.98624,20.96357 -29.82903,29.65738 -30.40975,29.89744 -0.92026,0.38042 -1.06996,0.38624 -2.1544,0.0838 z m 30.44608,-32.72492 c 16.08127,-16.07957 29.23868,-29.38462 29.23868,-29.56677 0,-0.35972 -58.3324,-58.80525 -58.69142,-58.80525 -0.35905,0 -58.69596,58.44267 -58.69596,58.80237 0,0.35972 58.33241,58.80525 58.69143,58.80525 0.12023,0 13.376,-13.15602 29.45727,-29.2356 z"
       id="path2852"
       transform="scale(0.26458333)"
       inkscape:connector-curvature="0" />
    <path
       style="opacity:0;fill:#164578;fill-opacity:1;stroke:#164578;stroke-width:0;stroke-miterlimit:4;stroke-dasharray:none;stroke-opacity:1"
       d="m 341.8109,636.56627 c -0.61329,-0.17107 -6.84134,-6.27759 -30.47221,-29.87758 -16.33576,-16.31441 -29.98782,-30.10317 -30.33792,-30.6417 -0.77844,-1.19738 -0.8199,-2.23809 -0.1343,-3.37058 0.6993,-1.15514 59.05778,-59.50281 60.33243,-60.32127 1.14417,-0.73467 1.7599,-0.72722 3.25486,0.0394 0.94165,0.48288 59.57907,59.11787 60.28276,60.28025 0.68666,1.13426 0.64543,2.17438 -0.13367,3.37218 -0.35029,0.53853 -13.9528,14.28067 -30.2278,30.53809 -20.98624,20.96357 -29.82903,29.65738 -30.40975,29.89744 -0.92026,0.38042 -1.06996,0.38624 -2.1544,0.0838 z m 30.44608,-32.72492 c 16.08127,-16.07957 29.23868,-29.38462 29.23868,-29.56677 0,-0.35972 -58.3324,-58.80525 -58.69142,-58.80525 -0.35905,0 -58.69596,58.44267 -58.69596,58.80237 0,0.35972 58.33241,58.80525 58.69143,58.80525 0.12023,0 13.376,-13.15602 29.45727,-29.2356 z"
       id="path3002"
       transform="scale(0.26458333)"
       inkscape:connector-curvature="0" />
    <path
       style="opacity:0;fill:#164578;fill-opacity:1;stroke:#164578;stroke-width:0;stroke-miterlimit:4;stroke-dasharray:none;stroke-opacity:1"
       d="m 341.8109,636.56627 c -0.61329,-0.17107 -6.84134,-6.27759 -30.47221,-29.87758 -16.33576,-16.31441 -29.98782,-30.10317 -30.33792,-30.6417 -0.77844,-1.19738 -0.8199,-2.23809 -0.1343,-3.37058 0.6993,-1.15514 59.05778,-59.50281 60.33243,-60.32127 1.14417,-0.73467 1.7599,-0.72722 3.25486,0.0394 0.94165,0.48288 59.57907,59.11787 60.28276,60.28025 0.68666,1.13426 0.64543,2.17438 -0.13367,3.37218 -0.35029,0.53853 -13.9528,14.28067 -30.2278,30.53809 -20.98624,20.96357 -29.82903,29.65738 -30.40975,29.89744 -0.92026,0.38042 -1.06996,0.38624 -2.1544,0.0838 z m 30.44608,-32.72492 c 16.08127,-16.07957 29.23868,-29.38462 29.23868,-29.56677 0,-0.35972 -58.3324,-58.80525 -58.69142,-58.80525 -0.35905,0 -58.69596,58.44267 -58.69596,58.80237 0,0.35972 58.33241,58.80525 58.69143,58.80525 0.12023,0 13.376,-13.15602 29.45727,-29.2356 z"
       id="path3041"
       transform="scale(0.26458333)"
       inkscape:connector-curvature="0" />
    <path
       style="opacity:0;fill:#164578;fill-opacity:1;stroke:#164578;stroke-width:0;stroke-miterlimit:4;stroke-dasharray:none;stroke-opacity:1"
       d="m 341.8109,636.56627 c -0.61329,-0.17107 -6.84134,-6.27759 -30.47221,-29.87758 -16.33576,-16.31441 -29.98782,-30.10317 -30.33792,-30.6417 -0.77844,-1.19738 -0.8199,-2.23809 -0.1343,-3.37058 0.6993,-1.15514 59.05778,-59.50281 60.33243,-60.32127 1.14417,-0.73467 1.7599,-0.72722 3.25486,0.0394 0.94165,0.48288 59.57907,59.11787 60.28276,60.28025 0.68666,1.13426 0.64543,2.17438 -0.13367,3.37218 -0.35029,0.53853 -13.9528,14.28067 -30.2278,30.53809 -20.98624,20.96357 -29.82903,29.65738 -30.40975,29.89744 -0.92026,0.38042 -1.06996,0.38624 -2.1544,0.0838 z m 30.44608,-32.72492 c 16.08127,-16.07957 29.23868,-29.38462 29.23868,-29.56677 0,-0.35972 -58.3324,-58.80525 -58.69142,-58.80525 -0.35905,0 -58.69596,58.44267 -58.69596,58.80237 0,0.35972 58.33241,58.80525 58.69143,58.80525 0.12023,0 13.376,-13.15602 29.45727,-29.2356 z"
       id="path3080"
       transform="scale(0.26458333)"
       inkscape:connector-curvature="0" />
    <path
       style="opacity:0;fill:#164578;fill-opacity:1;stroke:#164578;stroke-width:0;stroke-miterlimit:4;stroke-dasharray:none;stroke-opacity:1"
       d="m 313.51029,603.56503 -29.29127,-29.29189 29.29127,-29.29189 29.29127,-29.29189 29.29189,29.29189 29.29188,29.29189 -29.29188,29.29189 -29.29189,29.29188 z"
       id="path3119"
       transform="scale(0.26458333)"
       inkscape:connector-curvature="0" />
    <path
       style="opacity:0;fill:#164578;fill-opacity:1;stroke:#164578;stroke-width:0;stroke-miterlimit:4;stroke-dasharray:none;stroke-opacity:1"
       d="m 313.51029,603.56503 -29.29127,-29.29189 29.29127,-29.29189 29.29127,-29.29189 29.29189,29.29189 29.29188,29.29189 -29.29188,29.29189 -29.29189,29.29188 z"
       id="path3158"
       transform="scale(0.26458333)"
       inkscape:connector-curvature="0" />
    <path
       style="opacity:0;fill:#164578;fill-opacity:1;stroke:#164578;stroke-width:0;stroke-miterlimit:4;stroke-dasharray:none;stroke-opacity:1"
       d="m 313.51029,603.56503 -29.29127,-29.29189 29.29127,-29.29189 29.29127,-29.29189 29.29189,29.29189 29.29188,29.29189 -29.29188,29.29189 -29.29189,29.29188 z"
       id="path3197"
       transform="scale(0.26458333)"
       inkscape:connector-curvature="0" />
    <path
       style="opacity:0;fill:#164578;fill-opacity:1;stroke:#164578;stroke-width:0;stroke-miterlimit:4;stroke-dasharray:none;stroke-opacity:1"
       d="m 313.51029,603.56503 -29.29127,-29.29189 29.29127,-29.29189 29.29127,-29.29189 29.29189,29.29189 29.29188,29.29189 -29.29188,29.29189 -29.29189,29.29188 z"
       id="path3236"
       transform="scale(0.26458333)"
       inkscape:connector-curvature="0" />
  </g>
  <g
     inkscape:label="sq2"
     inkscape:groupmode="layer"
     id="layer1"
     style="display:inline"
     transform="translate(-72.288184,-132.01651)">
    <path
       id="sq2"
       d="m 93.814008,137.89996 c 0.574266,0.0203 0.984908,0.50715 1.372325,0.81788 0,0 2.850215,2.28601 2.850215,2.28601 0,0 11.611922,9.31335 11.611922,9.31335 0,0 3.27248,2.62467 3.27248,2.62467 0.24596,0.19727 1.03452,0.74846 1.03452,1.016 0,0.26755 -0.78856,0.81873 -1.03452,1.01601 0,0 -3.37803,2.70933 -3.37803,2.70933 0,0 -11.189682,8.97469 -11.189682,8.97469 0,0 -3.061341,2.45534 -3.061341,2.45534 -0.238573,0.19134 -0.98913,0.84751 -1.266762,0.90255 -0.394807,0.0796 -1.004964,-0.52325 -1.266762,-0.73322 0,0 -3.378031,-2.70934 -3.378031,-2.70934 0,0 -11.611985,-9.31335 -11.611985,-9.31335 0,0 -2.955777,-2.37067 -2.955777,-2.37067 -0.233295,-0.18712 -0.928958,-0.67141 -0.928958,-0.93134 0,-0.27262 0.881455,-0.89323 1.140084,-1.10067 0,0 3.58916,-2.87867 3.58916,-2.87867 0,0 10.345222,-8.29735 10.345222,-8.29735 0,0 3.166905,-2.54 3.166905,-2.54 0.47609,-0.38185 1.121084,-0.99315 1.689015,-1.24122 z"
       style="fill:#1f66b3;fill-opacity:1;stroke:#000000;stroke-width:0;stroke-miterlimit:4;stroke-dasharray:none"
       inkscape:connector-curvature="0" />
  </g>
  <g
     inkscape:groupmode="layer"
     id="layer7"
     inkscape:label="sq3"
     style="display:inline"
     transform="translate(-72.288184,-132.01651)">
    <path
       id="sq3"
       d="m 93.814594,133.94915 c 0.574266,0.0203 0.984908,0.50715 1.372325,0.81788 0,0 2.850215,2.28601 2.850215,2.28601 0,0 11.611916,9.31335 11.611916,9.31335 0,0 3.27246,2.62467 3.27246,2.62467 0.24597,0.19727 1.03453,0.74845 1.03453,1.016 0,0.26755 -0.78856,0.81873 -1.03453,1.016 0,0 -3.37803,2.70934 -3.37803,2.70934 0,0 -11.189656,8.97469 -11.189656,8.97469 0,0 -3.061341,2.45534 -3.061341,2.45534 -0.238573,0.19134 -0.98913,0.84751 -1.266762,0.90254 -0.394807,0.0796 -1.004964,-0.52324 -1.266762,-0.73321 0,0 -3.378031,-2.70934 -3.378031,-2.70934 0,0 -11.611983,-9.31335 -11.611983,-9.31335 0,0 -2.955779,-2.37067 -2.955779,-2.37067 -0.233294,-0.18712 -0.928958,-0.67141 -0.928958,-0.93134 0,-0.27263 0.881455,-0.89323 1.140086,-1.10067 0,0 3.589158,-2.87867 3.589158,-2.87867 0,0 10.345222,-8.29735 10.345222,-8.29735 0,0 3.166905,-2.54001 3.166905,-2.54001 0.47609,-0.38184 1.121084,-0.99314 1.689015,-1.24121 z"
       style="fill:#3486de;fill-opacity:1;stroke:#000000;stroke-width:0;stroke-miterlimit:4;stroke-dasharray:none"
       inkscape:connector-curvature="0" />
    <path
       style="opacity:0;fill:#1b589a;fill-opacity:1;stroke:#164578;stroke-width:0;stroke-miterlimit:4;stroke-dasharray:none;stroke-opacity:1"
       d="m 331.59708,610.63987 c -15.97399,-15.97434 -29.0065,-29.15323 -28.96111,-29.28642 0.10015,-0.29395 58.14245,-58.39599 58.33594,-58.39599 0.19337,0 58.23529,58.10229 58.3355,58.39618 0.10896,0.31954 -57.90719,58.33048 -58.33572,58.33048 -0.18204,0 -13.40062,-13.06992 -29.37461,-29.04425 z"
       id="path3740"
       transform="scale(0.26458333)"
       inkscape:connector-curvature="0" />
    <path
       style="opacity:0;fill:#1b589a;fill-opacity:1;stroke:#164578;stroke-width:0;stroke-miterlimit:4;stroke-dasharray:none;stroke-opacity:1"
       d="m 331.59708,610.63987 c -15.97399,-15.97434 -29.0065,-29.15323 -28.96111,-29.28642 0.10015,-0.29395 58.14245,-58.39599 58.33594,-58.39599 0.19337,0 58.23529,58.10229 58.3355,58.39618 0.10896,0.31954 -57.90719,58.33048 -58.33572,58.33048 -0.18204,0 -13.40062,-13.06992 -29.37461,-29.04425 z"
       id="path3779"
       transform="scale(0.26458333)"
       inkscape:connector-curvature="0" />
  </g>
  <g
     inkscape:groupmode="layer"
     id="layer4"
     inkscape:label="vi_shadow"
     style="display:inline;opacity:0.503;mix-blend-mode:normal;filter:url(#filter3388)"
     transform="translate(-72.288184,-132.01651)">
    <path
       id="shadowPath-3"
       d="m 77.376505,140.1334 c 0,0 7.196682,0 7.196682,0 0,0 0.856828,3.38668 0.856828,3.38668 0,0 0.846669,3.302 0.846669,3.302 0,0 3.345186,13.20803 3.345186,13.20803 0,0 0.739988,3.13267 0.739988,3.13267 0,0 0.360681,1.27 0.360681,1.27 0.07959,0.31581 0.242994,1.27001 0.491068,1.43765 0.15494,0.10498 0.456354,0.0864 0.640928,0.0864 0,0 0.931335,0 0.931335,0 0.710355,-0.0135 0.640928,-0.23538 0.835662,-1.016 0,0 0.603674,-2.20134 0.603674,-2.20134 0,0 -3.386673,0 -3.386673,0 0,0 0.581661,-2.28601 0.581661,-2.28601 0,0 0.325967,-0.93218 0.325967,-0.93218 0,0 0.616375,-0.0838 0.616375,-0.0838 0,0 2.116671,0 2.116671,0 0,0 0.616374,-0.13547 0.616374,-0.13547 0,0 0.303954,-0.88053 0.303954,-0.88053 0,0 0.519008,-2.28601 0.519008,-2.28601 0,0 -3.386673,0 -3.386673,0 0,0 0.762001,-3.302 0.762001,-3.302 0,0 3.556007,0 3.556007,0 0,0 0.762002,-3.30201 0.762002,-3.30201 0,0 -3.386674,0 -3.386674,0 0,0 0.762002,-3.30201 0.762002,-3.30201 0,0 2.709339,0 2.709339,0 0,0 0.714588,-0.13546 0.714588,-0.13546 0,0 0.325967,-0.88054 0.325967,-0.88054 0,0 0.568114,-2.286 0.568114,-2.286 0,0 -3.47134,0 -3.47134,0 0,0 0.677335,-2.70934 0.677335,-2.70934 0,0 6.942689,0 6.942689,0 0,0 -0.76201,2.70934 -0.76201,2.70934 0,0 3.47134,0 3.47134,0 0,0 -0.68918,2.286 -0.68918,2.286 0,0 -0.37423,0.92964 -0.37423,0.92964 0,0 -0.62992,0.0864 -0.62992,0.0864 0,0 -2.11667,0 -2.11667,0 0,0 -0.61807,0.13547 -0.61807,0.13547 0,0 -0.34205,0.88054 -0.34205,0.88054 0,0 -0.64855,2.286 -0.64855,2.286 0,0 2.62467,0 2.62467,0 1.03971,-0.002 0.78232,-0.20151 1.60867,-0.40301 0.87037,-0.21167 1.78816,-0.0931 2.54,0.41148 1.07527,0.7239 1.36314,2.50021 0.62231,3.54754 -0.51563,0.72898 -1.60698,1.14808 -2.48498,1.08543 -0.5825,-0.0415 -1.11844,-0.17442 -1.60867,-0.50123 -0.7603,-0.508 -0.5063,-0.83228 -1.43933,-0.8382 0,0 -2.963344,0 -2.963344,0 0,0 -0.931337,3.302 -0.931337,3.302 0,0 3.386681,0 3.386681,0 0,0 -0.58082,2.20134 -0.58082,2.20134 0,0 -0.34459,0.9652 -0.34459,0.9652 0,0 -0.5986,0.13547 -0.5986,0.13547 0,0 -2.116672,0 -2.116672,0 0,0 -0.701041,0.13547 -0.701041,0.13547 0,0 -0.364068,0.9652 -0.364068,0.9652 0,0 -0.628228,2.20134 -0.628228,2.20134 0,0 3.386679,0 3.386679,0 0,0 -0.580824,2.11667 -0.580824,2.11667 -0.0567,0.19812 -0.22606,0.83651 -0.34459,0.9652 -0.131233,0.14309 -0.33528,0.13208 -0.513927,0.13547 0,0 -2.116671,0 -2.116671,0 -0.287867,8.4e-4 -0.577428,-0.0347 -0.791635,0.19558 -0.226907,0.24384 -0.377614,0.91101 -0.480061,1.24375 0,0 -0.760308,2.62468 -0.760308,2.62468 0,0 -7.535349,0 -7.535349,0 0,0 -0.618068,-0.0838 -0.618068,-0.0838 0,0 -0.565574,-1.52485 -0.565574,-1.52485 0,0 -1.581577,-5.24935 -1.581577,-5.24935 0,0 -4.57709,-15.15536 -4.57709,-15.15536 0,0 -1.407162,-4.65668 -1.407162,-4.65668 0,0 -0.902549,-3.21734 -0.902549,-3.21734 z m 26.246725,16.00203 c 0,0 4.40268,0 4.40268,0 0,0 0,13.88537 0,13.88537 0,0 -4.40268,0 -4.40268,0 0,0 0,-13.88537 0,-13.88537 z"
       style="fill:#000000;fill-opacity:1;stroke:#000000;stroke-width:0;stroke-miterlimit:4;stroke-dasharray:none"
       inkscape:connector-curvature="0" />
  </g>
  <g
     inkscape:groupmode="layer"
     id="layer9"
     inkscape:label="vi_fconc"
     style="display:inline"
     transform="translate(-72.288184,-132.01651)">
    <path
       id="vi-conc"
       d="m 97.10976,139.00282 h 0.08467 l -0.08467,0.0847 z m 2.794004,2.62467 h 6.858026 l -0.6892,2.286 -0.35719,1.00679 -0.64695,0.009 h -6.011362 l 0.846676,-3.302 z m -1.693335,6.60401 h 4.487341 l 2.06957,-0.002 c -0.71205,0.51139 -1.16024,1.31462 -1.12807,2.20362 l 0.15917,1.10067 h -6.350013 l 0.762002,-3.30201 z m -1.693334,6.60401 h 6.180685 l -0.93134,3.30201 h -6.011346 z m -2.455338,9.82136 0.507154,-2.28601 0.252358,-0.9329 0.679824,0.002 h 5.249347 l -0.62823,2.286 -0.264186,0.9336 -0.716266,-0.002 h -5.080001 z"
       style="fill:#a6a6a6;fill-opacity:1;stroke:#000000;stroke-width:0;stroke-miterlimit:4;stroke-dasharray:none"
       sodipodi:nodetypes="ccccccccccccccccccccccccccccccccccc"
       inkscape:connector-curvature="0" />
  </g>
  <g
     inkscape:groupmode="layer"
     id="layer8"
     inkscape:label="vi_main"
     style="display:inline"
     transform="translate(-72.288184,-132.01651)">
    <path
       id="vi-main"
       d="m 77.905505,138.82973 6.011345,0.0847 1.124376,0.0516 0.495301,1.64169 1.058335,4.14867 3.642367,14.39337 0.742529,3.048 0.557107,2.45534 h 4.741343 l -1.185335,4.06401 h -7.535349 l -0.664749,-0.003 -0.518893,-1.60587 -1.581577,-5.24934 -4.577089,-15.15537 -1.58327,-5.24934 -0.726441,-2.62467 z m 18.45737,2.794 0.496995,-1.86267 0.261846,-0.83319 0.680495,-0.0135 h 6.180679 l -0.762,2.70934 h -6.858015 z m -0.846668,3.30201 h 6.688683 l -0.67564,2.286 -0.30456,1.01861 c -2.160576,0.003 -4.313793,-0.003 -6.470485,-0.003 z m 10.329353,2.83126 c 0.54356,-0.0694 1.0939,-0.0288 1.60867,0.17187 1.45119,0.56388 2.11244,2.43079 1.259,3.77021 -0.49869,0.78148 -1.61883,1.23614 -2.529,1.1701 -0.87884,-0.0643 -1.78647,-0.40132 -2.28346,-1.1701 -0.17611,-0.27178 -0.21421,-0.53594 -0.27348,-0.84666 -0.29972,-1.59259 0.66718,-2.80502 2.21827,-3.09542 z m -12.784691,7.07476 0.543561,-2.28601 0.254609,-1.01108 0.725833,-0.005 h 5.588008 l -0.93133,3.30201 z m 11.091361,0 h 4.40267 v 13.88536 h -4.40267 z m -12.784698,6.60401 c 0.261607,-1.10776 0.550901,-2.1912 0.86059,-3.30054 l 0.663413,-0.001 h 5.334011 c -0.325028,1.11071 -0.665034,2.19772 -1.029803,3.30351 -1.942729,0.007 -3.88547,-0.001 -5.828211,-0.001 z"
       style="opacity:1;fill:#f0f0f0;fill-opacity:1;stroke:#000000;stroke-width:0;stroke-miterlimit:4;stroke-dasharray:none"
       sodipodi:nodetypes="cccccccccccccccccccccccccccccccccccccccccccccccccccccccccc"
       inkscape:connector-curvature="0" />
  </g>
  <path
     style="opacity:0;fill:#216ab8;fill-opacity:1;stroke:#216ab8;stroke-width:0;stroke-miterlimit:4;stroke-dasharray:none"
     d="M 23.218907,19.92659 V 9.2338386 l 5.346375,5.3463744 5.346377,5.346377 -5.346377,5.346377 -5.346375,5.346375 z"
     id="path2813"
     inkscape:connector-curvature="0" />
  <metadata
     id="metadata7912">
    <rdf:RDF>
      <cc:Work
         rdf:about="">
        <dc:creator>
          <cc:Agent>
            <dc:title>Hescalalu</dc:title>
          </cc:Agent>
        </dc:creator>
        <dc:title>Vifm logo </dc:title>
        <cc:license
           rdf:resource="http://creativecommons.org/publicdomain/zero/1.0/" />
        <dc:format>image/svg+xml</dc:format>
        <dc:type
           rdf:resource="http://purl.org/dc/dcmitype/StillImage" />
      </cc:Work>
      <cc:License
         rdf:about="http://creativecommons.org/publicdomain/zero/1.0/">
        <cc:permits
           rdf:resource="http://creativecommons.org/ns#Reproduction" />
        <cc:permits
           rdf:resource="http://creativecommons.org/ns#Distribution" />
        <cc:permits
           rdf:resource="http://creativecommons.org/ns#DerivativeWorks" />
      </cc:License>
    </rdf:RDF>
  </metadata>
</svg>
